<svg xmlns="http://www.w3.org/2000/svg" viewBox="0 0 900 220" role="img" aria-label="OpenLaunchDeck">
  <defs>
    <linearGradient id="shell" x1="24" y1="18" x2="190" y2="202" gradientUnits="userSpaceOnUse">
      <stop offset="0" stop-color="#172033"/>
      <stop offset="0.62" stop-color="#0a1020"/>
      <stop offset="1" stop-color="#030712"/>
    </linearGradient>
    <linearGradient id="edge" x1="26" y1="26" x2="194" y2="194" gradientUnits="userSpaceOnUse">
      <stop offset="0" stop-color="#67e8f9"/>
      <stop offset="0.48" stop-color="#22d3ee"/>
      <stop offset="1" stop-color="#14b8a6"/>
    </linearGradient>
    <linearGradient id="teal" x1="0" y1="0" x2="1" y2="1">
      <stop offset="0" stop-color="#5eead4"/>
      <stop offset="1" stop-color="#0f766e"/>
    </linearGradient>
    <linearGradient id="blue" x1="0" y1="0" x2="1" y2="1">
      <stop offset="0" stop-color="#60a5fa"/>
      <stop offset="1" stop-color="#1d4ed8"/>
    </linearGradient>
    <linearGradient id="pink" x1="0" y1="0" x2="1" y2="1">
      <stop offset="0" stop-color="#fb7185"/>
      <stop offset="1" stop-color="#be185d"/>
    </linearGradient>
    <linearGradient id="amber" x1="0" y1="0" x2="1" y2="1">
      <stop offset="0" stop-color="#fde047"/>
      <stop offset="1" stop-color="#f97316"/>
    </linearGradient>
  </defs>

  <rect x="14" y="14" width="192" height="192" rx="42" fill="#f8fafc"/>
  <rect x="24" y="24" width="172" height="172" rx="36" fill="url(#shell)"/>
  <rect x="34" y="34" width="152" height="152" rx="30" fill="none" stroke="url(#edge)" stroke-width="9"/>
  <rect x="46" y="46" width="128" height="128" rx="22" fill="#0b1220"/>
  <g transform="translate(58 58)">
    <rect x="0" y="0" width="32" height="32" rx="8" fill="url(#teal)"/>
    <rect x="44" y="0" width="32" height="32" rx="8" fill="#1b263a"/>
    <rect x="88" y="0" width="32" height="32" rx="8" fill="url(#blue)"/>
    <rect x="0" y="44" width="32" height="32" rx="8" fill="#1b263a"/>
    <rect x="44" y="44" width="32" height="32" rx="8" fill="url(#pink)"/>
    <rect x="88" y="44" width="32" height="32" rx="8" fill="url(#amber)"/>
    <rect x="0" y="88" width="32" height="32" rx="8" fill="url(#blue)"/>
    <rect x="44" y="88" width="32" height="32" rx="8" fill="url(#teal)"/>
    <rect x="88" y="88" width="32" height="32" rx="8" fill="#1b263a"/>
  </g>

  <text x="238" y="108" fill="#0f172a" font-family="Segoe UI, Arial, sans-serif" font-size="56" font-weight="800">OpenLaunchDeck</text>
  <text x="242" y="151" fill="#475569" font-family="Segoe UI, Arial, sans-serif" font-size="24" font-weight="500">Launchpad Mini MK3 macro deck for Windows</text>
</svg>
