<svg xmlns="http://www.w3.org/2000/svg" viewBox="0 0 960 240" role="img" aria-label="OpenLaunchDeck logo">
  <defs>
    <linearGradient id="wm-bg" x1="0" y1="0" x2="1" y2="1">
      <stop offset="0" stop-color="#111827"/>
      <stop offset="1" stop-color="#020617"/>
    </linearGradient>
    <linearGradient id="wm-ring" x1="0" y1="0" x2="1" y2="1">
      <stop offset="0" stop-color="#2dd4bf"/>
      <stop offset="0.52" stop-color="#38bdf8"/>
      <stop offset="1" stop-color="#a78bfa"/>
    </linearGradient>
  </defs>
  <rect width="960" height="240" rx="32" fill="#0b1120"/>
  <g transform="translate(46 36) scale(0.328125)">
    <rect width="512" height="512" rx="104" fill="#020617"/>
    <rect x="48" y="48" width="416" height="416" rx="94" fill="url(#wm-bg)"/>
    <rect x="78" y="78" width="356" height="356" rx="72" fill="#0b1220"/>
    <rect x="78" y="78" width="356" height="356" rx="72" fill="none" stroke="url(#wm-ring)" stroke-width="16"/>
    <path d="M123 121h104" stroke="#e0f2fe" stroke-width="14" stroke-linecap="round" opacity="0.92"/>
    <path d="M388 386H284" stroke="#2dd4bf" stroke-width="14" stroke-linecap="round" opacity="0.8"/>
    <g transform="translate(130 142)">
      <rect x="0" y="0" width="54" height="54" rx="14" fill="#2dd4bf"/>
      <rect x="68" y="0" width="54" height="54" rx="14" fill="#182235"/>
      <rect x="136" y="0" width="54" height="54" rx="14" fill="#60a5fa"/>
      <rect x="204" y="0" width="54" height="54" rx="14" fill="#182235"/>
      <rect x="0" y="68" width="54" height="54" rx="14" fill="#182235"/>
      <rect x="68" y="68" width="54" height="54" rx="14" fill="#f472b6"/>
      <rect x="136" y="68" width="54" height="54" rx="14" fill="#182235"/>
      <rect x="204" y="68" width="54" height="54" rx="14" fill="#facc15"/>
      <rect x="0" y="136" width="54" height="54" rx="14" fill="#60a5fa"/>
      <rect x="68" y="136" width="54" height="54" rx="14" fill="#182235"/>
      <rect x="136" y="136" width="54" height="54" rx="14" fill="#2dd4bf"/>
      <rect x="204" y="136" width="54" height="54" rx="14" fill="#182235"/>
      <rect x="0" y="204" width="54" height="54" rx="14" fill="#182235"/>
      <rect x="68" y="204" width="54" height="54" rx="14" fill="#facc15"/>
      <rect x="136" y="204" width="54" height="54" rx="14" fill="#182235"/>
      <rect x="204" y="204" width="54" height="54" rx="14" fill="#f472b6"/>
    </g>
  </g>
  <text x="244" y="110" fill="#f8fafc" font-family="Segoe UI, Inter, Arial, sans-serif" font-size="56" font-weight="750">OpenLaunchDeck</text>
  <text x="248" y="158" fill="#94a3b8" font-family="Segoe UI, Inter, Arial, sans-serif" font-size="24">Windows macro deck for Launchpad Mini MK3</text>
</svg>
