<svg xmlns="http://www.w3.org/2000/svg" viewBox="0 0 512 512" role="img" aria-label="OpenLaunchDeck">
  <defs>
    <linearGradient id="outer" x1="72" y1="48" x2="438" y2="464" gradientUnits="userSpaceOnUse">
      <stop offset="0" stop-color="#1f2937"/>
      <stop offset="1" stop-color="#030712"/>
    </linearGradient>
    <linearGradient id="ring" x1="104" y1="86" x2="408" y2="426" gradientUnits="userSpaceOnUse">
      <stop offset="0" stop-color="#2dd4bf"/>
      <stop offset="0.52" stop-color="#38bdf8"/>
      <stop offset="1" stop-color="#a78bfa"/>
    </linearGradient>
    <linearGradient id="pad-teal" x1="0" y1="0" x2="1" y2="1">
      <stop offset="0" stop-color="#5eead4"/>
      <stop offset="1" stop-color="#0f766e"/>
    </linearGradient>
    <linearGradient id="pad-blue" x1="0" y1="0" x2="1" y2="1">
      <stop offset="0" stop-color="#60a5fa"/>
      <stop offset="1" stop-color="#1d4ed8"/>
    </linearGradient>
    <linearGradient id="pad-pink" x1="0" y1="0" x2="1" y2="1">
      <stop offset="0" stop-color="#f472b6"/>
      <stop offset="1" stop-color="#be185d"/>
    </linearGradient>
    <linearGradient id="pad-amber" x1="0" y1="0" x2="1" y2="1">
      <stop offset="0" stop-color="#facc15"/>
      <stop offset="1" stop-color="#ea580c"/>
    </linearGradient>
    <filter id="shadow" x="-16%" y="-16%" width="132%" height="132%">
      <feDropShadow dx="0" dy="18" stdDeviation="22" flood-color="#020617" flood-opacity="0.5"/>
    </filter>
  </defs>

  <rect width="512" height="512" rx="104" fill="#020617"/>
  <rect x="48" y="48" width="416" height="416" rx="94" fill="url(#outer)" filter="url(#shadow)"/>
  <rect x="78" y="78" width="356" height="356" rx="72" fill="#0b1220"/>
  <rect x="78" y="78" width="356" height="356" rx="72" fill="none" stroke="url(#ring)" stroke-width="16"/>
  <path d="M123 121h104" stroke="#e0f2fe" stroke-width="14" stroke-linecap="round" opacity="0.92"/>
  <path d="M388 386H284" stroke="#2dd4bf" stroke-width="14" stroke-linecap="round" opacity="0.8"/>

  <g transform="translate(130 142)">
    <rect x="0" y="0" width="54" height="54" rx="14" fill="url(#pad-teal)"/>
    <rect x="68" y="0" width="54" height="54" rx="14" fill="#182235"/>
    <rect x="136" y="0" width="54" height="54" rx="14" fill="url(#pad-blue)"/>
    <rect x="204" y="0" width="54" height="54" rx="14" fill="#182235"/>

    <rect x="0" y="68" width="54" height="54" rx="14" fill="#182235"/>
    <rect x="68" y="68" width="54" height="54" rx="14" fill="url(#pad-pink)"/>
    <rect x="136" y="68" width="54" height="54" rx="14" fill="#182235"/>
    <rect x="204" y="68" width="54" height="54" rx="14" fill="url(#pad-amber)"/>

    <rect x="0" y="136" width="54" height="54" rx="14" fill="url(#pad-blue)"/>
    <rect x="68" y="136" width="54" height="54" rx="14" fill="#182235"/>
    <rect x="136" y="136" width="54" height="54" rx="14" fill="url(#pad-teal)"/>
    <rect x="204" y="136" width="54" height="54" rx="14" fill="#182235"/>

    <rect x="0" y="204" width="54" height="54" rx="14" fill="#182235"/>
    <rect x="68" y="204" width="54" height="54" rx="14" fill="url(#pad-amber)"/>
    <rect x="136" y="204" width="54" height="54" rx="14" fill="#182235"/>
    <rect x="204" y="204" width="54" height="54" rx="14" fill="url(#pad-pink)"/>
  </g>

  <g opacity="0.32" fill="#ffffff">
    <rect x="146" y="154" width="22" height="5" rx="2.5"/>
    <rect x="282" y="154" width="22" height="5" rx="2.5"/>
    <rect x="350" y="222" width="22" height="5" rx="2.5"/>
    <rect x="146" y="290" width="22" height="5" rx="2.5"/>
    <rect x="282" y="290" width="22" height="5" rx="2.5"/>
    <rect x="214" y="358" width="22" height="5" rx="2.5"/>
    <rect x="350" y="358" width="22" height="5" rx="2.5"/>
  </g>
</svg>
