<svg xmlns="http://www.w3.org/2000/svg" viewBox="0 0 512 512" role="img" aria-label="OpenLaunchDeck">
  <defs>
    <linearGradient id="shell" x1="80" y1="44" x2="430" y2="468" gradientUnits="userSpaceOnUse">
      <stop offset="0" stop-color="#172033"/>
      <stop offset="0.62" stop-color="#0a1020"/>
      <stop offset="1" stop-color="#030712"/>
    </linearGradient>
    <linearGradient id="edge" x1="72" y1="72" x2="440" y2="440" gradientUnits="userSpaceOnUse">
      <stop offset="0" stop-color="#67e8f9"/>
      <stop offset="0.48" stop-color="#22d3ee"/>
      <stop offset="1" stop-color="#14b8a6"/>
    </linearGradient>
    <linearGradient id="teal" x1="0" y1="0" x2="1" y2="1">
      <stop offset="0" stop-color="#5eead4"/>
      <stop offset="1" stop-color="#0f766e"/>
    </linearGradient>
    <linearGradient id="blue" x1="0" y1="0" x2="1" y2="1">
      <stop offset="0" stop-color="#60a5fa"/>
      <stop offset="1" stop-color="#1d4ed8"/>
    </linearGradient>
    <linearGradient id="pink" x1="0" y1="0" x2="1" y2="1">
      <stop offset="0" stop-color="#fb7185"/>
      <stop offset="1" stop-color="#be185d"/>
    </linearGradient>
    <linearGradient id="amber" x1="0" y1="0" x2="1" y2="1">
      <stop offset="0" stop-color="#fde047"/>
      <stop offset="1" stop-color="#f97316"/>
    </linearGradient>
  </defs>

  <rect width="512" height="512" rx="96" fill="#020617"/>
  <rect x="28" y="28" width="456" height="456" rx="90" fill="url(#shell)"/>
  <rect x="50" y="50" width="412" height="412" rx="78" fill="none" stroke="url(#edge)" stroke-width="22"/>
  <rect x="78" y="78" width="356" height="356" rx="56" fill="#0b1220"/>

  <g transform="translate(105 105)">
    <rect x="0" y="0" width="84" height="84" rx="20" fill="url(#teal)"/>
    <rect x="107" y="0" width="84" height="84" rx="20" fill="#1b263a"/>
    <rect x="214" y="0" width="84" height="84" rx="20" fill="url(#blue)"/>

    <rect x="0" y="107" width="84" height="84" rx="20" fill="#1b263a"/>
    <rect x="107" y="107" width="84" height="84" rx="20" fill="url(#pink)"/>
    <rect x="214" y="107" width="84" height="84" rx="20" fill="url(#amber)"/>

    <rect x="0" y="214" width="84" height="84" rx="20" fill="url(#blue)"/>
    <rect x="107" y="214" width="84" height="84" rx="20" fill="url(#teal)"/>
    <rect x="214" y="214" width="84" height="84" rx="20" fill="#1b263a"/>
  </g>

  <g opacity="0.3" fill="#ffffff">
    <rect x="128" y="128" width="36" height="8" rx="4"/>
    <rect x="342" y="128" width="36" height="8" rx="4"/>
    <rect x="342" y="235" width="36" height="8" rx="4"/>
    <rect x="128" y="342" width="36" height="8" rx="4"/>
    <rect x="235" y="342" width="36" height="8" rx="4"/>
  </g>
</svg>
