<svg xmlns="http://www.w3.org/2000/svg" viewBox="0 0 512 512" role="img" aria-label="OpenLaunchDeck">
  <defs>
    <linearGradient id="shell" x1="80" y1="44" x2="430" y2="468" gradientUnits="userSpaceOnUse">
      <stop offset="0" stop-color="#172033"/>
      <stop offset="0.62" stop-color="#0a1020"/>
      <stop offset="1" stop-color="#030712"/>
    </linearGradient>
    <linearGradient id="edge" x1="72" y1="72" x2="440" y2="440" gradientUnits="userSpaceOnUse">
      <stop offset="0" stop-color="#67e8f9"/>
      <stop offset="0.48" stop-color="#22d3ee"/>
      <stop offset="1" stop-color="#14b8a6"/>
    </linearGradient>
    <linearGradient id="teal" x1="0" y1="0" x2="1" y2="1">
      <stop offset="0" stop-color="#5eead4"/>
      <stop offset="1" stop-color="#0f766e"/>
    </linearGradient>
    <linearGradient id="blue" x1="0" y1="0" x2="1" y2="1">
      <stop offset="0" stop-color="#60a5fa"/>
      <stop offset="1" stop-color="#1d4ed8"/>
    </linearGradient>
    <linearGradient id="pink" x1="0" y1="0" x2="1" y2="1">
      <stop offset="0" stop-color="#fb7185"/>
      <stop offset="1" stop-color="#be185d"/>
    </linearGradient>
    <linearGradient id="amber" x1="0" y1="0" x2="1" y2="1">
      <stop offset="0" stop-color="#fde047"/>
      <stop offset="1" stop-color="#f97316"/>
    </linearGradient>
  </defs>

  <rect x="16" y="16" width="480" height="480" rx="102" fill="#f8fafc"/>
  <rect x="28" y="28" width="456" height="456" rx="92" fill="url(#shell)"/>
  <rect x="42" y="42" width="428" height="428" rx="82" fill="url(#edge)"/>
  <rect x="61" y="61" width="390" height="390" rx="67" fill="url(#shell)"/>
  <rect x="76" y="76" width="360" height="360" rx="54" fill="#0b1220"/>

  <g transform="translate(104 104)">
    <rect x="0" y="0" width="88" height="88" rx="20" fill="url(#teal)"/>
    <rect x="108" y="0" width="88" height="88" rx="20" fill="#223049"/>
    <rect x="216" y="0" width="88" height="88" rx="20" fill="url(#blue)"/>

    <rect x="0" y="108" width="88" height="88" rx="20" fill="#223049"/>
    <rect x="108" y="108" width="88" height="88" rx="20" fill="url(#pink)"/>
    <rect x="216" y="108" width="88" height="88" rx="20" fill="url(#amber)"/>

    <rect x="0" y="216" width="88" height="88" rx="20" fill="url(#blue)"/>
    <rect x="108" y="216" width="88" height="88" rx="20" fill="url(#teal)"/>
    <rect x="216" y="216" width="88" height="88" rx="20" fill="#223049"/>
  </g>

  <g opacity="0.34" fill="#ffffff">
    <rect x="124" y="124" width="40" height="8" rx="4"/>
    <rect x="340" y="124" width="40" height="8" rx="4"/>
    <rect x="340" y="232" width="40" height="8" rx="4"/>
    <rect x="124" y="340" width="40" height="8" rx="4"/>
    <rect x="232" y="340" width="40" height="8" rx="4"/>
  </g>
</svg>
